<?xml version="1.0" encoding="UTF-8" standalone="no"?>
<!DOCTYPE svg PUBLIC "-//W3C//DTD SVG 1.1//EN" "http://www.w3.org/Graphics/SVG/1.1/DTD/svg11.dtd">
<svg width="100%" height="100%" viewBox="0 0 256 256" version="1.1" xmlns="http://www.w3.org/2000/svg" xmlns:xlink="http://www.w3.org/1999/xlink" xml:space="preserve" xmlns:serif="http://www.serif.com/" style="fill-rule:evenodd;clip-rule:evenodd;stroke-linejoin:round;stroke-miterlimit:2;">
	<style>
		path {
            fill: #000;
        }
		
        @media (prefers-color-scheme: dark) {
            path {
                fill: #fff;
            }
        }
	</style>
    <g transform="matrix(0.0790123,0,0,0.0790123,0,0)">
        <path d="M1620,740L1620,1480L1947.37,2134.73L1620.28,2288.23L1620,2288.1L1620,2653.59L1620.28,2653.46L2386.53,3013.07L2386.91,3013.82L2868.86,3240L371.137,3240L853.091,3013.82L853.467,3013.07L1619.72,2653.46L1620,2653.59L1620,2288.1L1619.72,2288.23L1292.63,2134.73L1620,1480L1620,740C1620,740 370,3240 370,3240L0,3240L810,810L972,1296L1620,0L2268,1296L2430,810L3240,3240L2870,3240L1620,740ZM1230.6,2470.85L1092.07,2535.86L1144.73,2430.55L1230.6,2470.85ZM2009.4,2470.85L2147.93,2535.86L2095.27,2430.55L2009.4,2470.85Z"/>
    </g>
</svg>
