<?xml version="1.0" encoding="UTF-8" standalone="no"?>
<!DOCTYPE svg PUBLIC "-//W3C//DTD SVG 1.1//EN" "http://www.w3.org/Graphics/SVG/1.1/DTD/svg11.dtd">
<svg width="100%" height="100%" viewBox="0 0 100 100" version="1.1" xmlns="http://www.w3.org/2000/svg" xmlns:xlink="http://www.w3.org/1999/xlink" xml:space="preserve" xmlns:serif="http://www.serif.com/" style="fill-rule:evenodd;clip-rule:evenodd;stroke-linejoin:round;stroke-miterlimit:2;">
    <g transform="matrix(0.0308642,0,0,0.0308642,0,0)">
        <g transform="matrix(1.22172,-5.55112e-17,0,1.01631,-412.941,-52.8482)">
            <path d="M1001,849L1664,3240L338,3240L1001,849Z" style="fill:white;"/>
        </g>
        <g transform="matrix(1.22172,-5.55112e-17,0,1.01631,1207.06,-52.8482)">
            <path d="M1001,849L1664,3240L338,3240L1001,849Z" style="fill:rgb(204,204,204);"/>
        </g>
        <path d="M1620,0L3240,3240L0,3240L1620,0Z" style="fill:rgb(230,230,230);"/>
        <path d="M1620,0L3240,3240L1620,3240L1620,0Z" style="fill:white;"/>
        <g transform="matrix(-1,0,0,1,3240,9.09495e-13)">
            <path d="M1620,0L3240,3240L1620,3240L1620,0Z" style="fill:rgb(204,204,204);"/>
        </g>
        <path d="M2868.86,3240L2386.91,3013.82L2386.53,3013.07L1620.28,2653.46L1620,2653.59L1620,2288.1L1620.28,2288.23L1947.37,2134.73L1620,1480L1620,740L1620,1480L1292.63,2134.73L1619.72,2288.23L1620,2288.1L1620,2653.59L1619.72,2653.46L853.467,3013.07L853.091,3013.82L371.137,3240L370,3240L1620,740L2870,3240L2868.86,3240ZM1230.6,2470.85L1092.07,2535.86L1144.73,2430.55L1230.6,2470.85ZM2009.4,2470.85L2147.93,2535.86L2095.27,2430.55L2009.4,2470.85Z" style="fill:rgb(255,98,0);"/>
        <g transform="matrix(-1,0,0,1,3240,0)">
            <path d="M1620,740L2870,3240L2868.86,3240L2386.91,3013.82L2386.53,3013.07L1620.28,2653.46L1620,2653.59L1620,2288.1L1620.28,2288.23L1947.37,2134.73L1620,1480L1620,740ZM1620,740L370.24,3239.52L372.158,3239.52L371.137,3240L370,3240L1620,740ZM2009.4,2470.85L2147.93,2535.86L2095.27,2430.55L2009.4,2470.85Z" style="fill:rgb(255,129,51);"/>
        </g>
        <path d="M1620,740L2870,3240L2868.86,3240L2386.91,3013.82L2386.53,3013.07L1620.28,2653.46L1620,2653.59L1620,2288.1L1620.28,2288.23L1947.37,2134.73L1620,1480L1620,740ZM1620,740L370.24,3239.52L372.158,3239.52L371.137,3240L370,3240L1620,740ZM2009.4,2470.85L2147.93,2535.86L2095.27,2430.55L2009.4,2470.85Z" style="fill:rgb(204,78,0);"/>
    </g>
</svg>
