<?xml version="1.0" encoding="UTF-8" standalone="no"?>
<!DOCTYPE svg PUBLIC "-//W3C//DTD SVG 1.1//EN" "http://www.w3.org/Graphics/SVG/1.1/DTD/svg11.dtd">
<svg width="100%" height="100%" viewBox="0 0 1920 410" version="1.1" xmlns="http://www.w3.org/2000/svg" xmlns:xlink="http://www.w3.org/1999/xlink" xml:space="preserve" xmlns:serif="http://www.serif.com/" style="fill-rule:evenodd;clip-rule:evenodd;stroke-linejoin:round;stroke-miterlimit:2;">
    <g transform="matrix(1,0,0,1,1.42109e-12,-335.489)">
        <g transform="matrix(0.681702,0,0,0.681702,-202.465,171.881)">
            <g id="logo-light-3240.svg" transform="matrix(0.185185,0,0,0.185185,597,540)">
                <g transform="matrix(1,0,0,1,-1620,-1620)">
                    <clipPath id="_clip1">
                        <rect x="0" y="0" width="3240" height="3240"/>
                    </clipPath>
                    <g clip-path="url(#_clip1)">
                        <g>
                            <g transform="matrix(1.22172,-5.55112e-17,0,1.01631,-412.941,-52.8482)">
                                <path d="M1001,849L1664,3240L338,3240L1001,849Z" style="fill:white;"/>
                            </g>
                            <g transform="matrix(1.22172,-5.55112e-17,0,1.01631,1207.06,-52.8482)">
                                <path d="M1001,849L1664,3240L338,3240L1001,849Z" style="fill:rgb(204,204,204);"/>
                            </g>
                            <path d="M1620,0L3240,3240L0,3240L1620,0Z" style="fill:rgb(230,230,230);"/>
                            <path d="M1620,0L3240,3240L1620,3240L1620,0Z" style="fill:white;"/>
                            <g transform="matrix(-1,0,0,1,3240,9.09495e-13)">
                                <path d="M1620,0L3240,3240L1620,3240L1620,0Z" style="fill:rgb(204,204,204);"/>
                            </g>
                            <path d="M2868.86,3240L2386.91,3013.82L2386.53,3013.07L1620.28,2653.46L1620,2653.59L1620,2288.1L1620.28,2288.23L1947.37,2134.73L1620,1480L1620,740L1620,1480L1292.63,2134.73L1619.72,2288.23L1620,2288.1L1620,2653.59L1619.72,2653.46L853.467,3013.07L853.091,3013.82L371.137,3240L370,3240L1620,740L2870,3240L2868.86,3240ZM1230.6,2470.85L1092.07,2535.86L1144.73,2430.55L1230.6,2470.85ZM2009.4,2470.85L2147.93,2535.86L2095.27,2430.55L2009.4,2470.85Z" style="fill:rgb(255,98,0);"/>
                            <g transform="matrix(-1,0,0,1,3240,0)">
                                <path d="M1620,740L2870,3240L2868.86,3240L2386.91,3013.82L2386.53,3013.07L1620.28,2653.46L1620,2653.59L1620,2288.1L1620.28,2288.23L1947.37,2134.73L1620,1480L1620,740ZM1620,740L370.24,3239.52L372.158,3239.52L371.137,3240L370,3240L1620,740ZM2009.4,2470.85L2147.93,2535.86L2095.27,2430.55L2009.4,2470.85Z" style="fill:rgb(255,129,51);"/>
                            </g>
                            <path d="M1620,740L2870,3240L2868.86,3240L2386.91,3013.82L2386.53,3013.07L1620.28,2653.46L1620,2653.59L1620,2288.1L1620.28,2288.23L1947.37,2134.73L1620,1480L1620,740ZM1620,740L370.24,3239.52L372.158,3239.52L371.137,3240L370,3240L1620,740ZM2009.4,2470.85L2147.93,2535.86L2095.27,2430.55L2009.4,2470.85Z" style="fill:rgb(204,78,0);"/>
                        </g>
                    </g>
                </g>
            </g>
            <g transform="matrix(1.8039,0,0,1.8039,-304.904,-206.955)">
                <g transform="matrix(22.2259,0,0,22.2259,-15962,-2118.89)">
                    <g transform="matrix(12,0,0,12,748.796,116.272)">
                        <path d="M0.406,0.01C0.347,0.01 0.295,-0.001 0.251,-0.023C0.206,-0.044 0.169,-0.073 0.14,-0.11C0.11,-0.146 0.087,-0.187 0.073,-0.232C0.058,-0.277 0.05,-0.323 0.05,-0.37C0.05,-0.417 0.058,-0.464 0.073,-0.509C0.087,-0.554 0.11,-0.595 0.14,-0.631C0.169,-0.668 0.206,-0.697 0.251,-0.718C0.295,-0.739 0.347,-0.75 0.406,-0.75C0.455,-0.75 0.497,-0.744 0.532,-0.731C0.567,-0.718 0.596,-0.702 0.62,-0.683C0.643,-0.663 0.662,-0.642 0.677,-0.62C0.691,-0.598 0.702,-0.577 0.709,-0.557C0.716,-0.537 0.72,-0.521 0.723,-0.508C0.726,-0.496 0.727,-0.49 0.727,-0.49L0.61,-0.49C0.61,-0.49 0.609,-0.495 0.607,-0.505C0.604,-0.516 0.599,-0.529 0.592,-0.544C0.584,-0.559 0.573,-0.575 0.558,-0.59C0.543,-0.605 0.523,-0.617 0.499,-0.627C0.474,-0.638 0.444,-0.643 0.407,-0.643C0.368,-0.643 0.333,-0.635 0.304,-0.62C0.274,-0.605 0.249,-0.584 0.229,-0.558C0.209,-0.532 0.194,-0.503 0.185,-0.47C0.175,-0.437 0.17,-0.404 0.17,-0.37C0.17,-0.336 0.175,-0.303 0.185,-0.271C0.194,-0.238 0.209,-0.209 0.229,-0.183C0.249,-0.156 0.274,-0.135 0.304,-0.12C0.333,-0.105 0.368,-0.097 0.407,-0.097C0.444,-0.097 0.474,-0.102 0.499,-0.113C0.523,-0.123 0.543,-0.136 0.558,-0.151C0.573,-0.166 0.584,-0.182 0.592,-0.197C0.599,-0.212 0.604,-0.225 0.607,-0.235C0.609,-0.246 0.61,-0.251 0.61,-0.251L0.727,-0.251C0.727,-0.251 0.726,-0.245 0.723,-0.232C0.72,-0.219 0.716,-0.203 0.709,-0.184C0.702,-0.164 0.691,-0.143 0.677,-0.121C0.662,-0.098 0.643,-0.077 0.62,-0.058C0.596,-0.038 0.567,-0.022 0.532,-0.009C0.497,0.004 0.455,0.01 0.406,0.01Z" style="fill:rgb(242,242,242);fill-rule:nonzero;"/>
                    </g>
                    <g transform="matrix(12,0,0,12,758.12,116.272)">
                        <path d="M0.137,-0.621C0.116,-0.621 0.099,-0.628 0.086,-0.642C0.073,-0.656 0.066,-0.672 0.066,-0.691C0.066,-0.71 0.073,-0.727 0.086,-0.741C0.099,-0.754 0.116,-0.761 0.137,-0.761C0.158,-0.761 0.175,-0.754 0.189,-0.741C0.202,-0.727 0.209,-0.71 0.209,-0.691C0.209,-0.672 0.202,-0.655 0.189,-0.642C0.175,-0.628 0.158,-0.621 0.137,-0.621ZM0.081,-0L0.081,-0.53L0.195,-0.53L0.195,-0L0.081,-0Z" style="fill:rgb(242,242,242);fill-rule:nonzero;"/>
                    </g>
                    <g transform="matrix(12,0,0,12,761.42,116.272)">
                        <path d="M0.066,-0L0.066,-0.53L0.18,-0.53L0.18,-0.455L0.184,-0.455C0.19,-0.466 0.199,-0.478 0.211,-0.491C0.222,-0.504 0.238,-0.516 0.257,-0.526C0.276,-0.535 0.301,-0.54 0.33,-0.54C0.369,-0.54 0.402,-0.531 0.428,-0.512C0.454,-0.493 0.473,-0.469 0.486,-0.438L0.488,-0.438C0.502,-0.465 0.522,-0.488 0.549,-0.509C0.576,-0.53 0.611,-0.54 0.655,-0.54C0.692,-0.54 0.724,-0.531 0.75,-0.514C0.776,-0.496 0.796,-0.472 0.809,-0.443C0.822,-0.413 0.828,-0.379 0.828,-0.342L0.828,-0L0.714,-0L0.714,-0.326C0.714,-0.361 0.706,-0.389 0.689,-0.411C0.672,-0.433 0.648,-0.444 0.615,-0.444C0.588,-0.444 0.567,-0.437 0.551,-0.422C0.534,-0.407 0.522,-0.389 0.515,-0.368C0.508,-0.346 0.504,-0.324 0.504,-0.302L0.504,-0L0.39,-0L0.39,-0.326C0.39,-0.361 0.382,-0.389 0.365,-0.411C0.348,-0.433 0.324,-0.444 0.291,-0.444C0.264,-0.444 0.243,-0.437 0.227,-0.422C0.21,-0.407 0.198,-0.389 0.191,-0.368C0.184,-0.346 0.18,-0.324 0.18,-0.302L0.18,-0L0.066,-0Z" style="fill:rgb(242,242,242);fill-rule:nonzero;"/>
                    </g>
                    <g transform="matrix(12,0,0,12,772.124,116.272)">
                        <path d="M0.295,-0.54C0.328,-0.54 0.356,-0.535 0.379,-0.524C0.401,-0.513 0.419,-0.501 0.432,-0.487C0.445,-0.473 0.455,-0.461 0.461,-0.451L0.467,-0.451L0.467,-0.53L0.581,-0.53L0.581,-0L0.467,-0L0.467,-0.079L0.461,-0.079C0.455,-0.069 0.445,-0.057 0.432,-0.043C0.419,-0.029 0.401,-0.017 0.379,-0.006C0.356,0.005 0.328,0.01 0.295,0.01C0.255,0.01 0.22,0.002 0.191,-0.014C0.161,-0.029 0.136,-0.05 0.116,-0.077C0.096,-0.103 0.081,-0.132 0.071,-0.165C0.062,-0.198 0.057,-0.231 0.057,-0.265C0.057,-0.299 0.062,-0.332 0.071,-0.365C0.081,-0.398 0.096,-0.427 0.116,-0.454C0.136,-0.48 0.161,-0.501 0.191,-0.517C0.22,-0.532 0.255,-0.54 0.295,-0.54ZM0.32,-0.445C0.287,-0.445 0.26,-0.436 0.238,-0.419C0.216,-0.401 0.2,-0.378 0.189,-0.351C0.178,-0.324 0.172,-0.295 0.172,-0.265C0.172,-0.235 0.178,-0.206 0.189,-0.179C0.2,-0.152 0.216,-0.129 0.238,-0.112C0.26,-0.094 0.287,-0.085 0.32,-0.085C0.353,-0.085 0.38,-0.094 0.402,-0.112C0.423,-0.129 0.44,-0.152 0.451,-0.179C0.462,-0.206 0.467,-0.235 0.467,-0.265C0.467,-0.295 0.462,-0.324 0.451,-0.351C0.44,-0.378 0.423,-0.401 0.402,-0.419C0.38,-0.436 0.353,-0.445 0.32,-0.445Z" style="fill:rgb(242,242,242);fill-rule:nonzero;"/>
                    </g>
                    <g transform="matrix(12,0,0,12,779.888,116.272)">
                        <path d="M0.04,-0L0.298,-0.74L0.448,-0.74L0.707,-0L0.584,-0L0.527,-0.166L0.22,-0.166L0.163,-0L0.04,-0ZM0.255,-0.27L0.492,-0.27L0.374,-0.615L0.255,-0.27Z" style="fill:rgb(242,242,242);fill-rule:nonzero;"/>
                    </g>
                    <g transform="matrix(12,0,0,12,788.852,116.272)">
                        <path d="M0.076,-0L0.077,-0.76L0.19,-0.76L0.19,-0L0.076,-0Z" style="fill:rgb(242,242,242);fill-rule:nonzero;"/>
                    </g>
                    <g transform="matrix(12,0,0,12,792.044,116.272)">
                        <path d="M0.128,-0L0.128,-0.438L0.042,-0.438L0.042,-0.53L0.128,-0.53L0.128,-0.587C0.128,-0.608 0.131,-0.629 0.136,-0.65C0.141,-0.671 0.15,-0.691 0.163,-0.71C0.176,-0.728 0.193,-0.743 0.215,-0.753C0.237,-0.764 0.265,-0.77 0.298,-0.77C0.317,-0.77 0.333,-0.769 0.346,-0.765C0.359,-0.762 0.365,-0.761 0.365,-0.761L0.365,-0.675C0.365,-0.675 0.36,-0.676 0.35,-0.678C0.341,-0.68 0.33,-0.681 0.318,-0.681C0.289,-0.681 0.269,-0.672 0.258,-0.655C0.247,-0.637 0.242,-0.614 0.242,-0.587L0.242,-0.53L0.36,-0.53L0.36,-0.438L0.242,-0.438L0.242,-0L0.128,-0Z" style="fill:rgb(242,242,242);fill-rule:nonzero;"/>
                    </g>
                    <g transform="matrix(12,0,0,12,796.46,116.272)">
                        <path d="M0.295,-0.54C0.328,-0.54 0.356,-0.535 0.379,-0.524C0.401,-0.513 0.419,-0.501 0.432,-0.487C0.445,-0.473 0.455,-0.461 0.461,-0.451L0.467,-0.451L0.467,-0.53L0.581,-0.53L0.581,-0L0.467,-0L0.467,-0.079L0.461,-0.079C0.455,-0.069 0.445,-0.057 0.432,-0.043C0.419,-0.029 0.401,-0.017 0.379,-0.006C0.356,0.005 0.328,0.01 0.295,0.01C0.255,0.01 0.22,0.002 0.191,-0.014C0.161,-0.029 0.136,-0.05 0.116,-0.077C0.096,-0.103 0.081,-0.132 0.071,-0.165C0.062,-0.198 0.057,-0.231 0.057,-0.265C0.057,-0.299 0.062,-0.332 0.071,-0.365C0.081,-0.398 0.096,-0.427 0.116,-0.454C0.136,-0.48 0.161,-0.501 0.191,-0.517C0.22,-0.532 0.255,-0.54 0.295,-0.54ZM0.32,-0.445C0.287,-0.445 0.26,-0.436 0.238,-0.419C0.216,-0.401 0.2,-0.378 0.189,-0.351C0.178,-0.324 0.172,-0.295 0.172,-0.265C0.172,-0.235 0.178,-0.206 0.189,-0.179C0.2,-0.152 0.216,-0.129 0.238,-0.112C0.26,-0.094 0.287,-0.085 0.32,-0.085C0.353,-0.085 0.38,-0.094 0.402,-0.112C0.423,-0.129 0.44,-0.152 0.451,-0.179C0.462,-0.206 0.467,-0.235 0.467,-0.265C0.467,-0.295 0.462,-0.324 0.451,-0.351C0.44,-0.378 0.423,-0.401 0.402,-0.419C0.38,-0.436 0.353,-0.445 0.32,-0.445Z" style="fill:rgb(242,242,242);fill-rule:nonzero;"/>
                    </g>
                </g>
                <g transform="matrix(7.95575,0,0,7.95575,-5057.01,-133.785)">
                    <g transform="matrix(12,0,0,12,722.394,88.1108)">
                        <path d="M0.04,-0L0.298,-0.74L0.448,-0.74L0.707,-0L0.584,-0L0.527,-0.166L0.22,-0.166L0.163,-0L0.04,-0ZM0.255,-0.27L0.492,-0.27L0.374,-0.615L0.255,-0.27Z" style="fill:rgb(242,242,242);fill-rule:nonzero;"/>
                    </g>
                    <g transform="matrix(12,0,0,12,730.902,88.1108)">
                        <path d="M0.411,0.01C0.35,0.01 0.297,-0.001 0.252,-0.022C0.206,-0.043 0.169,-0.072 0.139,-0.109C0.109,-0.145 0.087,-0.186 0.072,-0.231C0.057,-0.276 0.05,-0.322 0.05,-0.369C0.05,-0.416 0.057,-0.463 0.072,-0.508C0.087,-0.553 0.109,-0.594 0.14,-0.63C0.17,-0.667 0.208,-0.696 0.254,-0.718C0.299,-0.739 0.353,-0.75 0.414,-0.75C0.462,-0.75 0.503,-0.744 0.537,-0.732C0.571,-0.72 0.6,-0.705 0.623,-0.686C0.646,-0.667 0.665,-0.646 0.679,-0.625C0.693,-0.604 0.704,-0.583 0.711,-0.564C0.718,-0.545 0.723,-0.529 0.726,-0.517C0.729,-0.505 0.73,-0.499 0.73,-0.499L0.613,-0.499C0.613,-0.499 0.612,-0.504 0.609,-0.514C0.606,-0.524 0.601,-0.536 0.594,-0.551C0.586,-0.565 0.575,-0.579 0.56,-0.594C0.545,-0.609 0.526,-0.621 0.502,-0.63C0.479,-0.64 0.45,-0.645 0.415,-0.645C0.374,-0.645 0.338,-0.637 0.307,-0.622C0.276,-0.606 0.25,-0.585 0.23,-0.559C0.209,-0.533 0.194,-0.504 0.184,-0.471C0.174,-0.438 0.169,-0.405 0.169,-0.371C0.169,-0.336 0.174,-0.303 0.185,-0.27C0.195,-0.236 0.21,-0.207 0.231,-0.181C0.251,-0.154 0.276,-0.133 0.307,-0.118C0.337,-0.103 0.372,-0.095 0.413,-0.095C0.476,-0.095 0.527,-0.113 0.564,-0.149C0.601,-0.185 0.622,-0.234 0.626,-0.295L0.415,-0.295L0.415,-0.389L0.739,-0.389L0.739,-0.336C0.739,-0.26 0.725,-0.196 0.696,-0.145C0.667,-0.094 0.627,-0.055 0.578,-0.029C0.528,-0.003 0.472,0.01 0.411,0.01Z" style="fill:rgb(242,242,242);fill-rule:nonzero;"/>
                    </g>
                    <g transform="matrix(12,0,0,12,740.322,88.1108)">
                        <path d="M0.076,-0L0.076,-0.74L0.559,-0.74L0.559,-0.638L0.193,-0.638L0.193,-0.427L0.513,-0.427L0.513,-0.326L0.193,-0.326L0.193,-0.102L0.564,-0.102L0.564,-0L0.076,-0Z" style="fill:rgb(242,242,242);fill-rule:nonzero;"/>
                    </g>
                    <g transform="matrix(12,0,0,12,747.846,88.1108)">
                        <path d="M0.076,-0L0.076,-0.74L0.182,-0.74L0.545,-0.208L0.545,-0.74L0.662,-0.74L0.662,-0L0.555,-0L0.192,-0.527L0.192,-0L0.076,-0Z" style="fill:rgb(242,242,242);fill-rule:nonzero;"/>
                    </g>
                    <g transform="matrix(12,0,0,12,756.702,88.1108)">
                        <path d="M0.406,0.01C0.347,0.01 0.295,-0.001 0.251,-0.023C0.206,-0.044 0.169,-0.073 0.14,-0.11C0.11,-0.146 0.087,-0.187 0.073,-0.232C0.058,-0.277 0.05,-0.323 0.05,-0.37C0.05,-0.417 0.058,-0.464 0.073,-0.509C0.087,-0.554 0.11,-0.595 0.14,-0.631C0.169,-0.668 0.206,-0.697 0.251,-0.718C0.295,-0.739 0.347,-0.75 0.406,-0.75C0.455,-0.75 0.497,-0.744 0.532,-0.731C0.567,-0.718 0.596,-0.702 0.62,-0.683C0.643,-0.663 0.662,-0.642 0.677,-0.62C0.691,-0.598 0.702,-0.577 0.709,-0.557C0.716,-0.537 0.72,-0.521 0.723,-0.508C0.726,-0.496 0.727,-0.49 0.727,-0.49L0.61,-0.49C0.61,-0.49 0.609,-0.495 0.607,-0.505C0.604,-0.516 0.599,-0.529 0.592,-0.544C0.584,-0.559 0.573,-0.575 0.558,-0.59C0.543,-0.605 0.523,-0.617 0.499,-0.627C0.474,-0.638 0.444,-0.643 0.407,-0.643C0.368,-0.643 0.333,-0.635 0.304,-0.62C0.274,-0.605 0.249,-0.584 0.229,-0.558C0.209,-0.532 0.194,-0.503 0.185,-0.47C0.175,-0.437 0.17,-0.404 0.17,-0.37C0.17,-0.336 0.175,-0.303 0.185,-0.271C0.194,-0.238 0.209,-0.209 0.229,-0.183C0.249,-0.156 0.274,-0.135 0.304,-0.12C0.333,-0.105 0.368,-0.097 0.407,-0.097C0.444,-0.097 0.474,-0.102 0.499,-0.113C0.523,-0.123 0.543,-0.136 0.558,-0.151C0.573,-0.166 0.584,-0.182 0.592,-0.197C0.599,-0.212 0.604,-0.225 0.607,-0.235C0.609,-0.246 0.61,-0.251 0.61,-0.251L0.727,-0.251C0.727,-0.251 0.726,-0.245 0.723,-0.232C0.72,-0.219 0.716,-0.203 0.709,-0.184C0.702,-0.164 0.691,-0.143 0.677,-0.121C0.662,-0.098 0.643,-0.077 0.62,-0.058C0.596,-0.038 0.567,-0.022 0.532,-0.009C0.497,0.004 0.455,0.01 0.406,0.01Z" style="fill:rgb(242,242,242);fill-rule:nonzero;"/>
                    </g>
                    <g transform="matrix(12,0,0,12,766.026,88.1108)">
                        <rect x="0.076" y="-0.74" width="0.117" height="0.74" style="fill:rgb(242,242,242);fill-rule:nonzero;"/>
                    </g>
                    <g transform="matrix(12,0,0,12,769.254,88.1108)">
                        <path d="M0.04,-0L0.298,-0.74L0.448,-0.74L0.707,-0L0.584,-0L0.527,-0.166L0.22,-0.166L0.163,-0L0.04,-0ZM0.255,-0.27L0.492,-0.27L0.374,-0.615L0.255,-0.27Z" style="fill:rgb(242,242,242);fill-rule:nonzero;"/>
                    </g>
                    <g transform="matrix(12,0,0,12,780.978,88.1108)">
                        <path d="M0.076,-0L0.076,-0.74L0.329,-0.74C0.388,-0.74 0.44,-0.73 0.485,-0.709C0.53,-0.688 0.567,-0.659 0.597,-0.624C0.626,-0.589 0.649,-0.549 0.664,-0.505C0.679,-0.461 0.686,-0.416 0.686,-0.37C0.686,-0.324 0.679,-0.279 0.664,-0.235C0.649,-0.191 0.626,-0.151 0.597,-0.116C0.567,-0.081 0.53,-0.053 0.485,-0.032C0.44,-0.011 0.388,-0 0.329,-0L0.076,-0ZM0.324,-0.638L0.193,-0.638L0.193,-0.103L0.324,-0.103C0.365,-0.103 0.401,-0.111 0.432,-0.126C0.463,-0.141 0.488,-0.161 0.508,-0.187C0.528,-0.212 0.543,-0.241 0.554,-0.273C0.564,-0.304 0.569,-0.337 0.569,-0.37C0.569,-0.403 0.564,-0.436 0.554,-0.468C0.543,-0.5 0.528,-0.529 0.508,-0.554C0.488,-0.579 0.463,-0.6 0.432,-0.615C0.401,-0.63 0.365,-0.638 0.324,-0.638Z" style="fill:rgb(242,242,242);fill-rule:nonzero;"/>
                    </g>
                    <g transform="matrix(12,0,0,12,789.81,88.1108)">
                        <path d="M0.076,-0L0.076,-0.74L0.559,-0.74L0.559,-0.638L0.193,-0.638L0.193,-0.427L0.513,-0.427L0.513,-0.326L0.193,-0.326L0.193,-0.102L0.564,-0.102L0.564,-0L0.076,-0Z" style="fill:rgb(242,242,242);fill-rule:nonzero;"/>
                    </g>
                    <g transform="matrix(12,0,0,12,800.094,88.1108)">
                        <path d="M0.076,-0L0.076,-0.74L0.354,-0.74C0.412,-0.74 0.46,-0.728 0.499,-0.705C0.538,-0.681 0.567,-0.651 0.586,-0.614C0.605,-0.577 0.615,-0.538 0.615,-0.497C0.615,-0.456 0.605,-0.417 0.586,-0.38C0.567,-0.343 0.538,-0.312 0.499,-0.289C0.46,-0.265 0.412,-0.253 0.354,-0.253L0.193,-0.253L0.193,-0L0.076,-0ZM0.354,-0.638L0.193,-0.638L0.193,-0.355L0.354,-0.355C0.386,-0.355 0.413,-0.362 0.434,-0.376C0.455,-0.389 0.471,-0.407 0.482,-0.429C0.493,-0.45 0.498,-0.473 0.498,-0.496C0.498,-0.52 0.493,-0.543 0.482,-0.565C0.471,-0.586 0.455,-0.604 0.434,-0.618C0.413,-0.631 0.386,-0.638 0.354,-0.638Z" style="fill:rgb(242,242,242);fill-rule:nonzero;"/>
                    </g>
                    <g transform="matrix(12,0,0,12,807.966,88.1108)">
                        <path d="M0.364,0.01C0.307,0.01 0.257,-0.001 0.214,-0.023C0.171,-0.044 0.137,-0.076 0.113,-0.117C0.088,-0.159 0.076,-0.21 0.076,-0.271L0.076,-0.74L0.193,-0.74L0.193,-0.271C0.193,-0.223 0.207,-0.183 0.235,-0.15C0.263,-0.117 0.306,-0.1 0.364,-0.1C0.423,-0.1 0.466,-0.117 0.494,-0.15C0.522,-0.183 0.536,-0.223 0.536,-0.271L0.536,-0.74L0.653,-0.74L0.653,-0.271C0.653,-0.21 0.641,-0.159 0.617,-0.117C0.592,-0.076 0.558,-0.044 0.515,-0.023C0.471,-0.001 0.421,0.01 0.364,0.01Z" style="fill:rgb(242,242,242);fill-rule:nonzero;"/>
                    </g>
                    <g transform="matrix(12,0,0,12,816.714,88.1108)">
                        <path d="M0.076,-0L0.076,-0.74L0.38,-0.74C0.427,-0.74 0.468,-0.732 0.501,-0.715C0.535,-0.698 0.561,-0.675 0.579,-0.647C0.596,-0.619 0.605,-0.588 0.605,-0.555C0.605,-0.52 0.599,-0.491 0.586,-0.469C0.573,-0.446 0.558,-0.429 0.541,-0.417C0.524,-0.405 0.51,-0.397 0.498,-0.392L0.498,-0.386C0.515,-0.381 0.534,-0.373 0.555,-0.36C0.576,-0.346 0.595,-0.328 0.611,-0.304C0.626,-0.279 0.634,-0.248 0.634,-0.209C0.634,-0.174 0.626,-0.141 0.609,-0.109C0.592,-0.077 0.566,-0.051 0.53,-0.031C0.493,-0.01 0.446,-0 0.387,-0L0.076,-0ZM0.369,-0.64L0.193,-0.64L0.193,-0.426L0.369,-0.426C0.412,-0.426 0.443,-0.437 0.462,-0.459C0.481,-0.481 0.491,-0.506 0.491,-0.533C0.491,-0.56 0.481,-0.585 0.462,-0.607C0.443,-0.629 0.412,-0.64 0.369,-0.64ZM0.378,-0.334L0.193,-0.334L0.193,-0.1L0.378,-0.1C0.411,-0.1 0.437,-0.106 0.458,-0.117C0.479,-0.128 0.494,-0.142 0.503,-0.16C0.512,-0.178 0.517,-0.197 0.517,-0.217C0.517,-0.237 0.512,-0.256 0.503,-0.274C0.494,-0.291 0.479,-0.306 0.458,-0.317C0.437,-0.328 0.411,-0.334 0.378,-0.334Z" style="fill:rgb(242,242,242);fill-rule:nonzero;"/>
                    </g>
                    <g transform="matrix(12,0,0,12,824.946,88.1108)">
                        <path d="M0.076,-0L0.076,-0.74L0.193,-0.74L0.193,-0.102L0.567,-0.102L0.567,-0L0.076,-0Z" style="fill:rgb(242,242,242);fill-rule:nonzero;"/>
                    </g>
                    <g transform="matrix(12,0,0,12,832.506,88.1108)">
                        <rect x="0.076" y="-0.74" width="0.117" height="0.74" style="fill:rgb(242,242,242);fill-rule:nonzero;"/>
                    </g>
                    <g transform="matrix(12,0,0,12,835.734,88.1108)">
                        <path d="M0.406,0.01C0.347,0.01 0.295,-0.001 0.251,-0.023C0.206,-0.044 0.169,-0.073 0.14,-0.11C0.11,-0.146 0.087,-0.187 0.073,-0.232C0.058,-0.277 0.05,-0.323 0.05,-0.37C0.05,-0.417 0.058,-0.464 0.073,-0.509C0.087,-0.554 0.11,-0.595 0.14,-0.631C0.169,-0.668 0.206,-0.697 0.251,-0.718C0.295,-0.739 0.347,-0.75 0.406,-0.75C0.455,-0.75 0.497,-0.744 0.532,-0.731C0.567,-0.718 0.596,-0.702 0.62,-0.683C0.643,-0.663 0.662,-0.642 0.677,-0.62C0.691,-0.598 0.702,-0.577 0.709,-0.557C0.716,-0.537 0.72,-0.521 0.723,-0.508C0.726,-0.496 0.727,-0.49 0.727,-0.49L0.61,-0.49C0.61,-0.49 0.609,-0.495 0.607,-0.505C0.604,-0.516 0.599,-0.529 0.592,-0.544C0.584,-0.559 0.573,-0.575 0.558,-0.59C0.543,-0.605 0.523,-0.617 0.499,-0.627C0.474,-0.638 0.444,-0.643 0.407,-0.643C0.368,-0.643 0.333,-0.635 0.304,-0.62C0.274,-0.605 0.249,-0.584 0.229,-0.558C0.209,-0.532 0.194,-0.503 0.185,-0.47C0.175,-0.437 0.17,-0.404 0.17,-0.37C0.17,-0.336 0.175,-0.303 0.185,-0.271C0.194,-0.238 0.209,-0.209 0.229,-0.183C0.249,-0.156 0.274,-0.135 0.304,-0.12C0.333,-0.105 0.368,-0.097 0.407,-0.097C0.444,-0.097 0.474,-0.102 0.499,-0.113C0.523,-0.123 0.543,-0.136 0.558,-0.151C0.573,-0.166 0.584,-0.182 0.592,-0.197C0.599,-0.212 0.604,-0.225 0.607,-0.235C0.609,-0.246 0.61,-0.251 0.61,-0.251L0.727,-0.251C0.727,-0.251 0.726,-0.245 0.723,-0.232C0.72,-0.219 0.716,-0.203 0.709,-0.184C0.702,-0.164 0.691,-0.143 0.677,-0.121C0.662,-0.098 0.643,-0.077 0.62,-0.058C0.596,-0.038 0.567,-0.022 0.532,-0.009C0.497,0.004 0.455,0.01 0.406,0.01Z" style="fill:rgb(242,242,242);fill-rule:nonzero;"/>
                    </g>
                    <g transform="matrix(12,0,0,12,845.058,88.1108)">
                        <rect x="0.076" y="-0.74" width="0.117" height="0.74" style="fill:rgb(242,242,242);fill-rule:nonzero;"/>
                    </g>
                    <g transform="matrix(12,0,0,12,848.286,88.1108)">
                        <path d="M0.076,-0L0.076,-0.74L0.329,-0.74C0.388,-0.74 0.44,-0.73 0.485,-0.709C0.53,-0.688 0.567,-0.659 0.597,-0.624C0.626,-0.589 0.649,-0.549 0.664,-0.505C0.679,-0.461 0.686,-0.416 0.686,-0.37C0.686,-0.324 0.679,-0.279 0.664,-0.235C0.649,-0.191 0.626,-0.151 0.597,-0.116C0.567,-0.081 0.53,-0.053 0.485,-0.032C0.44,-0.011 0.388,-0 0.329,-0L0.076,-0ZM0.324,-0.638L0.193,-0.638L0.193,-0.103L0.324,-0.103C0.365,-0.103 0.401,-0.111 0.432,-0.126C0.463,-0.141 0.488,-0.161 0.508,-0.187C0.528,-0.212 0.543,-0.241 0.554,-0.273C0.564,-0.304 0.569,-0.337 0.569,-0.37C0.569,-0.403 0.564,-0.436 0.554,-0.468C0.543,-0.5 0.528,-0.529 0.508,-0.554C0.488,-0.579 0.463,-0.6 0.432,-0.615C0.401,-0.63 0.365,-0.638 0.324,-0.638Z" style="fill:rgb(242,242,242);fill-rule:nonzero;"/>
                    </g>
                    <g transform="matrix(12,0,0,12,856.638,88.1108)">
                        <path d="M0.04,-0L0.298,-0.74L0.448,-0.74L0.707,-0L0.584,-0L0.527,-0.166L0.22,-0.166L0.163,-0L0.04,-0ZM0.255,-0.27L0.492,-0.27L0.374,-0.615L0.255,-0.27Z" style="fill:rgb(242,242,242);fill-rule:nonzero;"/>
                    </g>
                    <g transform="matrix(12,0,0,12,865.602,88.1108)">
                        <path d="M0.076,-0L0.076,-0.74L0.329,-0.74C0.388,-0.74 0.44,-0.73 0.485,-0.709C0.53,-0.688 0.567,-0.659 0.597,-0.624C0.626,-0.589 0.649,-0.549 0.664,-0.505C0.679,-0.461 0.686,-0.416 0.686,-0.37C0.686,-0.324 0.679,-0.279 0.664,-0.235C0.649,-0.191 0.626,-0.151 0.597,-0.116C0.567,-0.081 0.53,-0.053 0.485,-0.032C0.44,-0.011 0.388,-0 0.329,-0L0.076,-0ZM0.324,-0.638L0.193,-0.638L0.193,-0.103L0.324,-0.103C0.365,-0.103 0.401,-0.111 0.432,-0.126C0.463,-0.141 0.488,-0.161 0.508,-0.187C0.528,-0.212 0.543,-0.241 0.554,-0.273C0.564,-0.304 0.569,-0.337 0.569,-0.37C0.569,-0.403 0.564,-0.436 0.554,-0.468C0.543,-0.5 0.528,-0.529 0.508,-0.554C0.488,-0.579 0.463,-0.6 0.432,-0.615C0.401,-0.63 0.365,-0.638 0.324,-0.638Z" style="fill:rgb(242,242,242);fill-rule:nonzero;"/>
                    </g>
                </g>
            </g>
        </g>
    </g>
</svg>
