<?xml version="1.0" encoding="UTF-8" standalone="no"?>
<!DOCTYPE svg PUBLIC "-//W3C//DTD SVG 1.1//EN" "http://www.w3.org/Graphics/SVG/1.1/DTD/svg11.dtd">
<svg width="100%" height="100%" viewBox="0 0 448 448" version="1.1" xmlns="http://www.w3.org/2000/svg" xmlns:xlink="http://www.w3.org/1999/xlink" xml:space="preserve" xmlns:serif="http://www.serif.com/" style="fill-rule:evenodd;clip-rule:evenodd;stroke-linejoin:round;stroke-miterlimit:2;">
    <g transform="matrix(1,0,0,1,0,-32)">
        <path d="M448,80L448,432C448,458.5 426.5,480 400,480L154.4,480C164.2,463.6 176.8,440 181.8,420.7C184.8,409.2 197.1,362.3 197.1,362.3C205.1,377.6 228.5,390.5 253.4,390.5C327.5,390.5 380.8,322.4 380.8,237.8C380.8,156.7 314.6,96 229.4,96C123.4,96 67.2,167.1 67.2,244.6C67.2,280.6 86.4,325.4 117,339.7C121.7,341.9 124.1,340.9 125.2,336.4C126,333 130.2,316.3 132,308.6C132.6,306.1 132.3,304 130.3,301.6C120.2,289.3 112,266.7 112,245.6C112,191.4 153,139 222.9,139C283.2,139 325.5,180.1 325.5,238.9C325.5,305.3 292,351.3 248.3,351.3C224.2,351.3 206.2,331.4 211.9,306.9C218.8,277.7 232.2,246.2 232.2,225.1C232.2,172.1 156.7,179.4 156.7,250.1C156.7,271.8 164,286.6 164,286.6C132.6,419.4 127.9,421.1 134.4,479.2L136.6,480L48,480C21.5,480 0,458.5 0,432L0,80C0,53.5 21.5,32 48,32L400,32C426.5,32 448,53.5 448,80Z" style="fill:rgb(242,242,242);fill-rule:nonzero;"/>
    </g>
</svg>
