<?xml version="1.0" encoding="UTF-8" standalone="no"?>
<!DOCTYPE svg PUBLIC "-//W3C//DTD SVG 1.1//EN" "http://www.w3.org/Graphics/SVG/1.1/DTD/svg11.dtd">
<svg width="100%" height="100%" viewBox="0 0 1685 376" version="1.1" xmlns="http://www.w3.org/2000/svg" xmlns:xlink="http://www.w3.org/1999/xlink" xml:space="preserve" xmlns:serif="http://www.serif.com/" style="fill-rule:evenodd;clip-rule:evenodd;stroke-linejoin:round;stroke-miterlimit:2;">
    <g transform="matrix(1,0,0,1,-1.13687e-13,-316.367)">
        <g transform="matrix(0.681702,0,0,0.681702,-202.465,171.881)">
            <g id="logo-light-32400-simple.svg" transform="matrix(0.16983,0,0,0.16983,572.125,487.075)">
                <g transform="matrix(1,0,0,1,-1620,-1620)">
                    <clipPath id="_clip1">
                        <rect x="0" y="0" width="3240" height="3240"/>
                    </clipPath>
                    <g clip-path="url(#_clip1)">
                        <g>
                            <g transform="matrix(1.22172,-5.55112e-17,0,1.01631,-412.941,-52.8482)">
                                <path d="M1001,849L1664,3240L338,3240L1001,849Z" style="fill:rgb(191,191,191);"/>
                            </g>
                            <g transform="matrix(1.22172,-5.55112e-17,0,1.01631,1207.06,-52.8482)">
                                <path d="M1001,849L1664,3240L338,3240L1001,849Z" style="fill:rgb(191,191,191);"/>
                            </g>
                            <path d="M1620,0L3240,3240L0,3240L1620,0Z" style="fill:rgb(241,241,241);"/>
                            <path d="M2868.86,3240L2386.91,3013.82L2386.53,3013.07L1620.28,2653.46L1620,2653.59L1620,2288.1L1620.28,2288.23L1947.37,2134.73L1620,1480L1620,740L1620,1480L1292.63,2134.73L1619.72,2288.23L1620,2288.1L1620,2653.59L1619.72,2653.46L853.467,3013.07L853.091,3013.82L371.137,3240L370,3240L1620,740L2870,3240L2868.86,3240ZM1230.6,2470.85L1092.07,2535.86L1144.73,2430.55L1230.6,2470.85ZM2009.4,2470.85L2147.93,2535.86L2095.27,2430.55L2009.4,2470.85Z" style="fill:rgb(253,148,0);"/>
                        </g>
                    </g>
                </g>
            </g>
            <g transform="matrix(1.8039,0,0,1.8039,-255.029,-232.947)">
                <g>
                    <g transform="matrix(19.256,0,0,19.256,-13794.9,-1801.02)">
                        <g transform="matrix(12,0,0,12,748.796,116.272)">
                            <path d="M0.406,0.01C0.347,0.01 0.295,-0.001 0.251,-0.023C0.206,-0.044 0.169,-0.073 0.14,-0.11C0.11,-0.146 0.087,-0.187 0.073,-0.232C0.058,-0.277 0.05,-0.323 0.05,-0.37C0.05,-0.417 0.058,-0.464 0.073,-0.509C0.087,-0.554 0.11,-0.595 0.14,-0.631C0.169,-0.668 0.206,-0.697 0.251,-0.718C0.295,-0.739 0.347,-0.75 0.406,-0.75C0.455,-0.75 0.497,-0.744 0.532,-0.731C0.567,-0.718 0.596,-0.702 0.62,-0.683C0.643,-0.663 0.662,-0.642 0.677,-0.62C0.691,-0.598 0.702,-0.577 0.709,-0.557C0.716,-0.537 0.72,-0.521 0.723,-0.508C0.726,-0.496 0.727,-0.49 0.727,-0.49L0.61,-0.49C0.61,-0.49 0.609,-0.495 0.607,-0.505C0.604,-0.516 0.599,-0.529 0.592,-0.544C0.584,-0.559 0.573,-0.575 0.558,-0.59C0.543,-0.605 0.523,-0.617 0.499,-0.627C0.474,-0.638 0.444,-0.643 0.407,-0.643C0.368,-0.643 0.333,-0.635 0.304,-0.62C0.274,-0.605 0.249,-0.584 0.229,-0.558C0.209,-0.532 0.194,-0.503 0.185,-0.47C0.175,-0.437 0.17,-0.404 0.17,-0.37C0.17,-0.336 0.175,-0.303 0.185,-0.271C0.194,-0.238 0.209,-0.209 0.229,-0.183C0.249,-0.156 0.274,-0.135 0.304,-0.12C0.333,-0.105 0.368,-0.097 0.407,-0.097C0.444,-0.097 0.474,-0.102 0.499,-0.113C0.523,-0.123 0.543,-0.136 0.558,-0.151C0.573,-0.166 0.584,-0.182 0.592,-0.197C0.599,-0.212 0.604,-0.225 0.607,-0.235C0.609,-0.246 0.61,-0.251 0.61,-0.251L0.727,-0.251C0.727,-0.251 0.726,-0.245 0.723,-0.232C0.72,-0.219 0.716,-0.203 0.709,-0.184C0.702,-0.164 0.691,-0.143 0.677,-0.121C0.662,-0.098 0.643,-0.077 0.62,-0.058C0.596,-0.038 0.567,-0.022 0.532,-0.009C0.497,0.004 0.455,0.01 0.406,0.01Z" style="fill:rgb(242,242,242);fill-rule:nonzero;"/>
                        </g>
                        <g transform="matrix(12,0,0,12,758.12,116.272)">
                            <path d="M0.137,-0.621C0.116,-0.621 0.099,-0.628 0.086,-0.642C0.073,-0.656 0.066,-0.672 0.066,-0.691C0.066,-0.71 0.073,-0.727 0.086,-0.741C0.099,-0.754 0.116,-0.761 0.137,-0.761C0.158,-0.761 0.175,-0.754 0.189,-0.741C0.202,-0.727 0.209,-0.71 0.209,-0.691C0.209,-0.672 0.202,-0.655 0.189,-0.642C0.175,-0.628 0.158,-0.621 0.137,-0.621ZM0.081,-0L0.081,-0.53L0.195,-0.53L0.195,-0L0.081,-0Z" style="fill:rgb(242,242,242);fill-rule:nonzero;"/>
                        </g>
                        <g transform="matrix(12,0,0,12,761.42,116.272)">
                            <path d="M0.066,-0L0.066,-0.53L0.18,-0.53L0.18,-0.455L0.184,-0.455C0.19,-0.466 0.199,-0.478 0.211,-0.491C0.222,-0.504 0.238,-0.516 0.257,-0.526C0.276,-0.535 0.301,-0.54 0.33,-0.54C0.369,-0.54 0.402,-0.531 0.428,-0.512C0.454,-0.493 0.473,-0.469 0.486,-0.438L0.488,-0.438C0.502,-0.465 0.522,-0.488 0.549,-0.509C0.576,-0.53 0.611,-0.54 0.655,-0.54C0.692,-0.54 0.724,-0.531 0.75,-0.514C0.776,-0.496 0.796,-0.472 0.809,-0.443C0.822,-0.413 0.828,-0.379 0.828,-0.342L0.828,-0L0.714,-0L0.714,-0.326C0.714,-0.361 0.706,-0.389 0.689,-0.411C0.672,-0.433 0.648,-0.444 0.615,-0.444C0.588,-0.444 0.567,-0.437 0.551,-0.422C0.534,-0.407 0.522,-0.389 0.515,-0.368C0.508,-0.346 0.504,-0.324 0.504,-0.302L0.504,-0L0.39,-0L0.39,-0.326C0.39,-0.361 0.382,-0.389 0.365,-0.411C0.348,-0.433 0.324,-0.444 0.291,-0.444C0.264,-0.444 0.243,-0.437 0.227,-0.422C0.21,-0.407 0.198,-0.389 0.191,-0.368C0.184,-0.346 0.18,-0.324 0.18,-0.302L0.18,-0L0.066,-0Z" style="fill:rgb(242,242,242);fill-rule:nonzero;"/>
                        </g>
                        <g transform="matrix(12,0,0,12,772.124,116.272)">
                            <path d="M0.295,-0.54C0.328,-0.54 0.356,-0.535 0.379,-0.524C0.401,-0.513 0.419,-0.501 0.432,-0.487C0.445,-0.473 0.455,-0.461 0.461,-0.451L0.467,-0.451L0.467,-0.53L0.581,-0.53L0.581,-0L0.467,-0L0.467,-0.079L0.461,-0.079C0.455,-0.069 0.445,-0.057 0.432,-0.043C0.419,-0.029 0.401,-0.017 0.379,-0.006C0.356,0.005 0.328,0.01 0.295,0.01C0.255,0.01 0.22,0.002 0.191,-0.014C0.161,-0.029 0.136,-0.05 0.116,-0.077C0.096,-0.103 0.081,-0.132 0.071,-0.165C0.062,-0.198 0.057,-0.231 0.057,-0.265C0.057,-0.299 0.062,-0.332 0.071,-0.365C0.081,-0.398 0.096,-0.427 0.116,-0.454C0.136,-0.48 0.161,-0.501 0.191,-0.517C0.22,-0.532 0.255,-0.54 0.295,-0.54ZM0.32,-0.445C0.287,-0.445 0.26,-0.436 0.238,-0.419C0.216,-0.401 0.2,-0.378 0.189,-0.351C0.178,-0.324 0.172,-0.295 0.172,-0.265C0.172,-0.235 0.178,-0.206 0.189,-0.179C0.2,-0.152 0.216,-0.129 0.238,-0.112C0.26,-0.094 0.287,-0.085 0.32,-0.085C0.353,-0.085 0.38,-0.094 0.402,-0.112C0.423,-0.129 0.44,-0.152 0.451,-0.179C0.462,-0.206 0.467,-0.235 0.467,-0.265C0.467,-0.295 0.462,-0.324 0.451,-0.351C0.44,-0.378 0.423,-0.401 0.402,-0.419C0.38,-0.436 0.353,-0.445 0.32,-0.445Z" style="fill:rgb(242,242,242);fill-rule:nonzero;"/>
                        </g>
                        <g transform="matrix(12,0,0,12,779.888,116.272)">
                            <path d="M0.04,-0L0.298,-0.74L0.448,-0.74L0.707,-0L0.584,-0L0.527,-0.166L0.22,-0.166L0.163,-0L0.04,-0ZM0.255,-0.27L0.492,-0.27L0.374,-0.615L0.255,-0.27Z" style="fill:rgb(242,242,242);fill-rule:nonzero;"/>
                        </g>
                        <g transform="matrix(12,0,0,12,788.852,116.272)">
                            <path d="M0.076,-0L0.077,-0.76L0.19,-0.76L0.19,-0L0.076,-0Z" style="fill:rgb(242,242,242);fill-rule:nonzero;"/>
                        </g>
                        <g transform="matrix(12,0,0,12,792.044,116.272)">
                            <path d="M0.128,-0L0.128,-0.438L0.042,-0.438L0.042,-0.53L0.128,-0.53L0.128,-0.587C0.128,-0.608 0.131,-0.629 0.136,-0.65C0.141,-0.671 0.15,-0.691 0.163,-0.71C0.176,-0.728 0.193,-0.743 0.215,-0.753C0.237,-0.764 0.265,-0.77 0.298,-0.77C0.317,-0.77 0.333,-0.769 0.346,-0.765C0.359,-0.762 0.365,-0.761 0.365,-0.761L0.365,-0.675C0.365,-0.675 0.36,-0.676 0.35,-0.678C0.341,-0.68 0.33,-0.681 0.318,-0.681C0.289,-0.681 0.269,-0.672 0.258,-0.655C0.247,-0.637 0.242,-0.614 0.242,-0.587L0.242,-0.53L0.36,-0.53L0.36,-0.438L0.242,-0.438L0.242,-0L0.128,-0Z" style="fill:rgb(242,242,242);fill-rule:nonzero;"/>
                        </g>
                        <g transform="matrix(12,0,0,12,796.46,116.272)">
                            <path d="M0.295,-0.54C0.328,-0.54 0.356,-0.535 0.379,-0.524C0.401,-0.513 0.419,-0.501 0.432,-0.487C0.445,-0.473 0.455,-0.461 0.461,-0.451L0.467,-0.451L0.467,-0.53L0.581,-0.53L0.581,-0L0.467,-0L0.467,-0.079L0.461,-0.079C0.455,-0.069 0.445,-0.057 0.432,-0.043C0.419,-0.029 0.401,-0.017 0.379,-0.006C0.356,0.005 0.328,0.01 0.295,0.01C0.255,0.01 0.22,0.002 0.191,-0.014C0.161,-0.029 0.136,-0.05 0.116,-0.077C0.096,-0.103 0.081,-0.132 0.071,-0.165C0.062,-0.198 0.057,-0.231 0.057,-0.265C0.057,-0.299 0.062,-0.332 0.071,-0.365C0.081,-0.398 0.096,-0.427 0.116,-0.454C0.136,-0.48 0.161,-0.501 0.191,-0.517C0.22,-0.532 0.255,-0.54 0.295,-0.54ZM0.32,-0.445C0.287,-0.445 0.26,-0.436 0.238,-0.419C0.216,-0.401 0.2,-0.378 0.189,-0.351C0.178,-0.324 0.172,-0.295 0.172,-0.265C0.172,-0.235 0.178,-0.206 0.189,-0.179C0.2,-0.152 0.216,-0.129 0.238,-0.112C0.26,-0.094 0.287,-0.085 0.32,-0.085C0.353,-0.085 0.38,-0.094 0.402,-0.112C0.423,-0.129 0.44,-0.152 0.451,-0.179C0.462,-0.206 0.467,-0.235 0.467,-0.265C0.467,-0.295 0.462,-0.324 0.451,-0.351C0.44,-0.378 0.423,-0.401 0.402,-0.419C0.38,-0.436 0.353,-0.445 0.32,-0.445Z" style="fill:rgb(242,242,242);fill-rule:nonzero;"/>
                        </g>
                    </g>
                    <g transform="matrix(8.06977,0,0,8.06977,-5197.98,-173.706)">
                        <g transform="matrix(12,0,0,12,722.394,88.1108)">
                            <path d="M0.131,0.01C0.108,0.01 0.087,0.009 0.069,0.006C0.05,0.004 0.04,0.003 0.04,0.003L0.04,-0.084L0.084,-0.081C0.096,-0.08 0.108,-0.079 0.119,-0.079C0.17,-0.079 0.211,-0.092 0.242,-0.117C0.272,-0.142 0.287,-0.186 0.287,-0.248L0.287,-0.74L0.385,-0.74L0.385,-0.248C0.385,-0.169 0.364,-0.107 0.321,-0.06C0.278,-0.013 0.214,0.01 0.131,0.01Z" style="fill:rgb(242,242,242);fill-rule:nonzero;"/>
                        </g>
                        <g transform="matrix(12,0,0,12,727.974,88.1108)">
                            <path d="M0.08,-0L0.08,-0.74L0.55,-0.74L0.55,-0.654L0.178,-0.654L0.178,-0.42L0.504,-0.42L0.504,-0.334L0.178,-0.334L0.178,-0.086L0.555,-0.086L0.555,-0L0.08,-0Z" style="fill:rgb(242,242,242);fill-rule:nonzero;"/>
                        </g>
                        <g transform="matrix(12,0,0,12,735.414,88.1108)">
                            <path d="M0.08,-0L0.08,-0.74L0.342,-0.74C0.395,-0.74 0.438,-0.73 0.473,-0.709C0.508,-0.688 0.534,-0.662 0.551,-0.629C0.568,-0.596 0.577,-0.562 0.577,-0.526C0.577,-0.496 0.571,-0.467 0.559,-0.439C0.547,-0.411 0.529,-0.387 0.505,-0.366C0.482,-0.344 0.452,-0.329 0.416,-0.32L0.603,-0L0.492,-0L0.313,-0.311L0.178,-0.311L0.178,-0L0.08,-0ZM0.341,-0.654L0.178,-0.654L0.178,-0.395L0.341,-0.395C0.372,-0.395 0.397,-0.401 0.417,-0.414C0.437,-0.427 0.452,-0.443 0.462,-0.463C0.472,-0.482 0.477,-0.503 0.477,-0.524C0.477,-0.546 0.472,-0.567 0.462,-0.587C0.452,-0.606 0.437,-0.622 0.417,-0.635C0.397,-0.648 0.372,-0.654 0.341,-0.654Z" style="fill:rgb(242,242,242);fill-rule:nonzero;"/>
                        </g>
                        <g transform="matrix(12,0,0,12,743.43,88.1108)">
                            <path d="M0.08,-0L0.08,-0.74L0.55,-0.74L0.55,-0.654L0.178,-0.654L0.178,-0.42L0.504,-0.42L0.504,-0.334L0.178,-0.334L0.178,-0.086L0.555,-0.086L0.555,-0L0.08,-0Z" style="fill:rgb(242,242,242);fill-rule:nonzero;"/>
                        </g>
                        <g transform="matrix(12,0,0,12,750.87,88.1108)">
                            <path d="M0.08,-0L0.08,-0.74L0.209,-0.74L0.427,-0.3L0.644,-0.74L0.773,-0.74L0.773,-0L0.677,-0L0.677,-0.596L0.473,-0.19L0.38,-0.19L0.176,-0.598L0.176,-0L0.08,-0Z" style="fill:rgb(242,242,242);fill-rule:nonzero;"/>
                        </g>
                        <g transform="matrix(12,0,0,12,761.106,88.1108)">
                            <path d="M0.284,-0L0.284,-0.263L0.025,-0.74L0.132,-0.74L0.333,-0.363L0.533,-0.74L0.64,-0.74L0.381,-0.263L0.381,-0L0.284,-0Z" style="fill:rgb(242,242,242);fill-rule:nonzero;"/>
                        </g>
                        <g transform="matrix(12,0,0,12,769.086,88.1108)">
                            <path d="M0.06,-0.535L0.07,-0.74L0.159,-0.74L0.122,-0.535L0.06,-0.535Z" style="fill:rgb(242,242,242);fill-rule:nonzero;"/>
                        </g>
                        <g transform="matrix(12,0,0,12,771.234,88.1108)">
                            <path d="M0.328,0.01C0.285,0.01 0.249,0.004 0.219,-0.007C0.188,-0.018 0.163,-0.032 0.143,-0.05C0.123,-0.067 0.107,-0.086 0.095,-0.105C0.083,-0.124 0.074,-0.143 0.068,-0.161C0.062,-0.178 0.058,-0.193 0.057,-0.203C0.055,-0.215 0.054,-0.22 0.054,-0.22L0.154,-0.22C0.154,-0.22 0.155,-0.215 0.157,-0.206C0.159,-0.197 0.163,-0.185 0.17,-0.171C0.176,-0.157 0.185,-0.143 0.198,-0.129C0.211,-0.114 0.228,-0.102 0.249,-0.093C0.27,-0.084 0.297,-0.079 0.33,-0.079C0.379,-0.079 0.418,-0.091 0.447,-0.115C0.476,-0.138 0.49,-0.169 0.49,-0.207C0.49,-0.24 0.479,-0.265 0.458,-0.283C0.436,-0.301 0.405,-0.315 0.365,-0.325L0.267,-0.349C0.232,-0.358 0.2,-0.37 0.171,-0.386C0.141,-0.401 0.117,-0.422 0.1,-0.448C0.082,-0.473 0.073,-0.505 0.073,-0.544C0.073,-0.587 0.084,-0.624 0.105,-0.655C0.126,-0.686 0.155,-0.709 0.192,-0.726C0.229,-0.742 0.27,-0.75 0.317,-0.75C0.362,-0.75 0.4,-0.743 0.43,-0.729C0.46,-0.715 0.484,-0.698 0.502,-0.678C0.52,-0.657 0.533,-0.637 0.542,-0.617C0.551,-0.596 0.556,-0.579 0.559,-0.565C0.562,-0.551 0.563,-0.544 0.563,-0.544L0.467,-0.544C0.467,-0.544 0.466,-0.55 0.463,-0.562C0.46,-0.574 0.454,-0.588 0.444,-0.604C0.434,-0.619 0.419,-0.633 0.398,-0.645C0.377,-0.657 0.349,-0.663 0.314,-0.663C0.266,-0.663 0.23,-0.652 0.205,-0.629C0.181,-0.606 0.169,-0.58 0.169,-0.551C0.169,-0.524 0.179,-0.503 0.198,-0.487C0.217,-0.47 0.244,-0.458 0.278,-0.449L0.384,-0.423C0.422,-0.414 0.456,-0.4 0.487,-0.383C0.518,-0.365 0.542,-0.342 0.56,-0.315C0.578,-0.287 0.587,-0.253 0.587,-0.213C0.587,-0.173 0.577,-0.136 0.558,-0.102C0.538,-0.068 0.509,-0.041 0.47,-0.021C0.432,-0 0.385,0.01 0.328,0.01Z" style="fill:rgb(242,242,242);fill-rule:nonzero;"/>
                        </g>
                        <g transform="matrix(12,0,0,12,781.614,88.1108)">
                            <path d="M0.08,-0L0.08,-0.74L0.344,-0.74C0.401,-0.74 0.448,-0.728 0.486,-0.705C0.523,-0.682 0.552,-0.652 0.571,-0.615C0.59,-0.578 0.599,-0.539 0.599,-0.499C0.599,-0.458 0.59,-0.42 0.571,-0.383C0.552,-0.345 0.523,-0.315 0.486,-0.292C0.448,-0.268 0.401,-0.256 0.344,-0.256L0.178,-0.256L0.178,-0L0.08,-0ZM0.344,-0.654L0.178,-0.654L0.178,-0.342L0.344,-0.342C0.379,-0.342 0.409,-0.35 0.432,-0.365C0.455,-0.38 0.473,-0.4 0.485,-0.424C0.496,-0.447 0.502,-0.472 0.502,-0.498C0.502,-0.524 0.496,-0.549 0.485,-0.573C0.473,-0.597 0.455,-0.617 0.432,-0.631C0.409,-0.647 0.379,-0.654 0.344,-0.654Z" style="fill:rgb(242,242,242);fill-rule:nonzero;"/>
                        </g>
                        <g transform="matrix(12,0,0,12,789.342,88.1108)">
                            <path d="M0.413,0.01C0.354,0.01 0.303,-0.001 0.258,-0.023C0.213,-0.044 0.176,-0.073 0.146,-0.11C0.116,-0.146 0.093,-0.187 0.078,-0.232C0.063,-0.277 0.055,-0.324 0.055,-0.371C0.055,-0.418 0.063,-0.465 0.078,-0.509C0.093,-0.555 0.116,-0.595 0.146,-0.631C0.176,-0.667 0.213,-0.696 0.258,-0.718C0.303,-0.739 0.354,-0.75 0.413,-0.75C0.472,-0.75 0.523,-0.739 0.568,-0.718C0.613,-0.696 0.65,-0.667 0.68,-0.631C0.71,-0.595 0.733,-0.555 0.748,-0.509C0.763,-0.465 0.771,-0.418 0.771,-0.371C0.771,-0.324 0.763,-0.277 0.748,-0.232C0.733,-0.187 0.71,-0.146 0.68,-0.11C0.65,-0.073 0.613,-0.044 0.568,-0.023C0.523,-0.001 0.472,0.01 0.413,0.01ZM0.413,-0.081C0.455,-0.081 0.492,-0.089 0.524,-0.105C0.556,-0.121 0.583,-0.143 0.605,-0.17C0.626,-0.197 0.643,-0.228 0.654,-0.263C0.665,-0.298 0.671,-0.334 0.671,-0.371C0.671,-0.408 0.665,-0.443 0.654,-0.477C0.643,-0.512 0.626,-0.543 0.605,-0.57C0.583,-0.597 0.556,-0.619 0.524,-0.635C0.492,-0.651 0.455,-0.659 0.413,-0.659C0.371,-0.659 0.334,-0.651 0.302,-0.635C0.27,-0.619 0.243,-0.597 0.222,-0.57C0.2,-0.543 0.183,-0.512 0.172,-0.477C0.161,-0.443 0.155,-0.408 0.155,-0.371C0.155,-0.334 0.161,-0.298 0.172,-0.263C0.183,-0.228 0.2,-0.197 0.222,-0.17C0.243,-0.143 0.27,-0.121 0.302,-0.105C0.334,-0.089 0.371,-0.081 0.413,-0.081Z" style="fill:rgb(242,242,242);fill-rule:nonzero;"/>
                        </g>
                        <g transform="matrix(12,0,0,12,799.254,88.1108)">
                            <path d="M0.08,-0L0.08,-0.74L0.342,-0.74C0.395,-0.74 0.438,-0.73 0.473,-0.709C0.508,-0.688 0.534,-0.662 0.551,-0.629C0.568,-0.596 0.577,-0.562 0.577,-0.526C0.577,-0.496 0.571,-0.467 0.559,-0.439C0.547,-0.411 0.529,-0.387 0.505,-0.366C0.482,-0.344 0.452,-0.329 0.416,-0.32L0.603,-0L0.492,-0L0.313,-0.311L0.178,-0.311L0.178,-0L0.08,-0ZM0.341,-0.654L0.178,-0.654L0.178,-0.395L0.341,-0.395C0.372,-0.395 0.397,-0.401 0.417,-0.414C0.437,-0.427 0.452,-0.443 0.462,-0.463C0.472,-0.482 0.477,-0.503 0.477,-0.524C0.477,-0.546 0.472,-0.567 0.462,-0.587C0.452,-0.606 0.437,-0.622 0.417,-0.635C0.397,-0.648 0.372,-0.654 0.341,-0.654Z" style="fill:rgb(242,242,242);fill-rule:nonzero;"/>
                        </g>
                        <g transform="matrix(12,0,0,12,806.91,88.1108)">
                            <path d="M0.276,-0L0.276,-0.654L0.045,-0.654L0.045,-0.74L0.605,-0.74L0.605,-0.654L0.374,-0.654L0.374,-0L0.276,-0Z" style="fill:rgb(242,242,242);fill-rule:nonzero;"/>
                        </g>
                        <g transform="matrix(12,0,0,12,814.71,88.1108)">
                            <path d="M0.08,-0L0.08,-0.74L0.568,-0.74L0.568,-0.654L0.178,-0.654L0.178,-0.41L0.522,-0.41L0.522,-0.324L0.178,-0.324L0.178,-0L0.08,-0Z" style="fill:rgb(242,242,242);fill-rule:nonzero;"/>
                        </g>
                        <g transform="matrix(12,0,0,12,822.066,88.1108)">
                            <path d="M0.413,0.01C0.354,0.01 0.303,-0.001 0.258,-0.023C0.213,-0.044 0.176,-0.073 0.146,-0.11C0.116,-0.146 0.093,-0.187 0.078,-0.232C0.063,-0.277 0.055,-0.324 0.055,-0.371C0.055,-0.418 0.063,-0.465 0.078,-0.509C0.093,-0.555 0.116,-0.595 0.146,-0.631C0.176,-0.667 0.213,-0.696 0.258,-0.718C0.303,-0.739 0.354,-0.75 0.413,-0.75C0.472,-0.75 0.523,-0.739 0.568,-0.718C0.613,-0.696 0.65,-0.667 0.68,-0.631C0.71,-0.595 0.733,-0.555 0.748,-0.509C0.763,-0.465 0.771,-0.418 0.771,-0.371C0.771,-0.324 0.763,-0.277 0.748,-0.232C0.733,-0.187 0.71,-0.146 0.68,-0.11C0.65,-0.073 0.613,-0.044 0.568,-0.023C0.523,-0.001 0.472,0.01 0.413,0.01ZM0.413,-0.081C0.455,-0.081 0.492,-0.089 0.524,-0.105C0.556,-0.121 0.583,-0.143 0.605,-0.17C0.626,-0.197 0.643,-0.228 0.654,-0.263C0.665,-0.298 0.671,-0.334 0.671,-0.371C0.671,-0.408 0.665,-0.443 0.654,-0.477C0.643,-0.512 0.626,-0.543 0.605,-0.57C0.583,-0.597 0.556,-0.619 0.524,-0.635C0.492,-0.651 0.455,-0.659 0.413,-0.659C0.371,-0.659 0.334,-0.651 0.302,-0.635C0.27,-0.619 0.243,-0.597 0.222,-0.57C0.2,-0.543 0.183,-0.512 0.172,-0.477C0.161,-0.443 0.155,-0.408 0.155,-0.371C0.155,-0.334 0.161,-0.298 0.172,-0.263C0.183,-0.228 0.2,-0.197 0.222,-0.17C0.243,-0.143 0.27,-0.121 0.302,-0.105C0.334,-0.089 0.371,-0.081 0.413,-0.081Z" style="fill:rgb(242,242,242);fill-rule:nonzero;"/>
                        </g>
                        <g transform="matrix(12,0,0,12,831.978,88.1108)">
                            <path d="M0.08,-0L0.08,-0.74L0.178,-0.74L0.178,-0.086L0.559,-0.086L0.559,-0L0.08,-0Z" style="fill:rgb(242,242,242);fill-rule:nonzero;"/>
                        </g>
                        <g transform="matrix(12,0,0,12,839.466,88.1108)">
                            <rect x="0.08" y="-0.74" width="0.098" height="0.74" style="fill:rgb(242,242,242);fill-rule:nonzero;"/>
                        </g>
                        <g transform="matrix(12,0,0,12,842.562,88.1108)">
                            <path d="M0.413,0.01C0.354,0.01 0.303,-0.001 0.258,-0.023C0.213,-0.044 0.176,-0.073 0.146,-0.11C0.116,-0.146 0.093,-0.187 0.078,-0.232C0.063,-0.277 0.055,-0.324 0.055,-0.371C0.055,-0.418 0.063,-0.465 0.078,-0.509C0.093,-0.555 0.116,-0.595 0.146,-0.631C0.176,-0.667 0.213,-0.696 0.258,-0.718C0.303,-0.739 0.354,-0.75 0.413,-0.75C0.472,-0.75 0.523,-0.739 0.568,-0.718C0.613,-0.696 0.65,-0.667 0.68,-0.631C0.71,-0.595 0.733,-0.555 0.748,-0.509C0.763,-0.465 0.771,-0.418 0.771,-0.371C0.771,-0.324 0.763,-0.277 0.748,-0.232C0.733,-0.187 0.71,-0.146 0.68,-0.11C0.65,-0.073 0.613,-0.044 0.568,-0.023C0.523,-0.001 0.472,0.01 0.413,0.01ZM0.413,-0.081C0.455,-0.081 0.492,-0.089 0.524,-0.105C0.556,-0.121 0.583,-0.143 0.605,-0.17C0.626,-0.197 0.643,-0.228 0.654,-0.263C0.665,-0.298 0.671,-0.334 0.671,-0.371C0.671,-0.408 0.665,-0.443 0.654,-0.477C0.643,-0.512 0.626,-0.543 0.605,-0.57C0.583,-0.597 0.556,-0.619 0.524,-0.635C0.492,-0.651 0.455,-0.659 0.413,-0.659C0.371,-0.659 0.334,-0.651 0.302,-0.635C0.27,-0.619 0.243,-0.597 0.222,-0.57C0.2,-0.543 0.183,-0.512 0.172,-0.477C0.161,-0.443 0.155,-0.408 0.155,-0.371C0.155,-0.334 0.161,-0.298 0.172,-0.263C0.183,-0.228 0.2,-0.197 0.222,-0.17C0.243,-0.143 0.27,-0.121 0.302,-0.105C0.334,-0.089 0.371,-0.081 0.413,-0.081Z" style="fill:rgb(242,242,242);fill-rule:nonzero;"/>
                        </g>
                    </g>
                </g>
            </g>
        </g>
    </g>
</svg>
