<svg viewBox="0 0 4096 879" xmlns="http://www.w3.org/2000/svg" xml:space="preserve" style="fill-rule:evenodd;clip-rule:evenodd;stroke-linejoin:round;stroke-miterlimit:2"><g transform="matrix(.21437 0 0 .21437 0 .001)"><clipPath id="a"><path d="M0 0h4096v4096H0z"/></clipPath><g clip-path="url(#a)"><path d="m2254.64 4096 885.76-2863.35L4026.16 4096H2254.64Zm0 0H483.114l885.766-2863.35L2254.64 4096Z" style="fill:#999" transform="matrix(1.15607 0 0 1.13049 -558.512 -534.505)"/><path d="m986.735 332.87 601.055 598.234H385.679L986.735 332.87Z" style="fill:#e6e6e6" transform="matrix(3.40733 0 0 6.84681 -1314.14 -2279.1)"/><path d="M372.384 842.985h-63.501l239.294-555.343 239.294 555.343H723.97L548.177 709.12 372.384 842.985ZM459.246 641.4l-36.326 84.304 73.517-55.983-37.191-28.321Zm152.297-59.331-63.366-147.056-63.366 147.056 63.366 48.253 63.366-48.253Zm61.891 143.635L637.108 641.4l-37.191 28.321 73.517 55.983Z" style="fill:#fd9400" transform="matrix(6.76364 0 0 5.82883 -1659.68 -817.616)"/></g></g><path d="M.131.01A.387.387 0 0 1 .069.006L.04.003v-.087l.044.003.035.002a.19.19 0 0 0 .123-.038c.03-.025.045-.069.045-.131V-.74h.098v.492a.266.266 0 0 1-.064.188C.278-.013.214.01.131.01Z" style="fill:#f3f3f3;fill-rule:nonzero" transform="matrix(269.64938 0 0 269.64938 958.65 847.567)"/><path d="M.08 0v-.74h.47v.086H.178v.234h.326v.086H.178v.248h.377V0H.08Z" style="fill:#f3f3f3;fill-rule:nonzero" transform="matrix(269.64938 0 0 269.64938 1097.52 847.567)"/><path d="M.08 0v-.74h.262a.25.25 0 0 1 .131.031.2.2 0 0 1 .078.08.222.222 0 0 1 .008.19.202.202 0 0 1-.054.073.194.194 0 0 1-.089.046L.603 0H.492L.313-.311H.178V0H.08Zm.261-.654H.178v.259h.163a.136.136 0 0 0 .076-.019.131.131 0 0 0 .06-.11.129.129 0 0 0-.06-.111.136.136 0 0 0-.076-.019Z" style="fill:#f3f3f3;fill-rule:nonzero" transform="matrix(269.64938 0 0 269.64938 1278.185 847.567)"/><path d="M.08 0v-.74h.47v.086H.178v.234h.326v.086H.178v.248h.377V0H.08Z" style="fill:#f3f3f3;fill-rule:nonzero" transform="matrix(269.64938 0 0 269.64938 1471.79 847.567)"/><path d="M.08 0v-.74h.129l.218.44.217-.44h.129V0H.677v-.596L.473-.19H.38L.176-.598V0H.08Z" style="fill:#f3f3f3;fill-rule:nonzero" transform="matrix(269.64938 0 0 269.64938 1652.454 847.567)"/><path d="M.284 0v-.263L.025-.74h.107l.201.377.2-.377H.64l-.259.477V0H.284Z" style="fill:#f3f3f3;fill-rule:nonzero" transform="matrix(269.64938 0 0 269.64938 1895.944 847.567)"/><path d="M.06-.535.07-.74h.089l-.037.205H.06Z" style="fill:#f3f3f3;fill-rule:nonzero" transform="matrix(269.64938 0 0 269.64938 2088.743 847.567)"/><path d="M.328.01a.316.316 0 0 1-.109-.017.243.243 0 0 1-.151-.154.202.202 0 0 1-.011-.042.618.618 0 0 0-.003-.017h.1l.003.014a.156.156 0 0 0 .013.035.146.146 0 0 0 .028.042c.013.015.03.027.051.036a.207.207 0 0 0 .081.014.178.178 0 0 0 .117-.036.111.111 0 0 0 .043-.092.095.095 0 0 0-.032-.076.237.237 0 0 0-.093-.042L.267-.349a.407.407 0 0 1-.096-.037A.179.179 0 0 1 .1-.448a.16.16 0 0 1-.027-.096c0-.043.011-.08.032-.111a.204.204 0 0 1 .087-.071.31.31 0 0 1 .125-.024c.045 0 .083.007.113.021a.22.22 0 0 1 .129.164l.004.021H.467L.463-.562a.133.133 0 0 0-.065-.083.169.169 0 0 0-.084-.018c-.048 0-.084.011-.109.034a.106.106 0 0 0-.036.078c0 .027.01.048.029.064a.193.193 0 0 0 .08.038l.106.026a.409.409 0 0 1 .103.04.218.218 0 0 1 .073.068.185.185 0 0 1 .027.102.21.21 0 0 1-.117.192.29.29 0 0 1-.142.031Z" style="fill:#f3f3f3;fill-rule:nonzero" transform="matrix(269.64938 0 0 269.64938 2150.5 847.567)"/><path d="M.08 0v-.74h.264a.27.27 0 0 1 .142.035.23.23 0 0 1 .085.09.251.251 0 0 1 0 .232.225.225 0 0 1-.085.091.26.26 0 0 1-.142.036H.178V0H.08Zm.264-.654H.178v.312h.166a.16.16 0 0 0 .088-.023.15.15 0 0 0 .053-.059.17.17 0 0 0 0-.149.152.152 0 0 0-.141-.081Z" style="fill:#f3f3f3;fill-rule:nonzero" transform="matrix(269.64938 0 0 269.64938 2410.712 847.567)"/><path d="M.413.01a.347.347 0 0 1-.155-.033.311.311 0 0 1-.112-.087.375.375 0 0 1-.068-.122.44.44 0 0 1 0-.277.365.365 0 0 1 .068-.122.335.335 0 0 1 .267-.119.335.335 0 0 1 .267.119c.03.036.053.076.068.122a.43.43 0 0 1 0 .277.375.375 0 0 1-.068.122.311.311 0 0 1-.112.087.347.347 0 0 1-.155.033Zm0-.091a.245.245 0 0 0 .111-.024.245.245 0 0 0 .081-.065.295.295 0 0 0 .049-.093.359.359 0 0 0 0-.214.295.295 0 0 0-.049-.093.245.245 0 0 0-.081-.065.245.245 0 0 0-.111-.024.232.232 0 0 0-.191.089.278.278 0 0 0-.05.093.341.341 0 0 0 .05.307.232.232 0 0 0 .191.089Z" style="fill:#f3f3f3;fill-rule:nonzero" transform="matrix(269.64938 0 0 269.64938 2597.847 847.567)"/><path d="M.08 0v-.74h.262a.25.25 0 0 1 .131.031.2.2 0 0 1 .078.08.222.222 0 0 1 .008.19.202.202 0 0 1-.054.073.194.194 0 0 1-.089.046L.603 0H.492L.313-.311H.178V0H.08Zm.261-.654H.178v.259h.163a.136.136 0 0 0 .076-.019.131.131 0 0 0 .06-.11.129.129 0 0 0-.06-.111.136.136 0 0 0-.076-.019Z" style="fill:#f3f3f3;fill-rule:nonzero" transform="matrix(269.64938 0 0 269.64938 2834.062 847.567)"/><path d="M.276 0v-.654H.045V-.74h.56v.086H.374V0H.276Z" style="fill:#f3f3f3;fill-rule:nonzero" transform="matrix(269.64938 0 0 269.64938 3019.577 847.567)"/><path d="M.08 0v-.74h.488v.086h-.39v.244h.344v.086H.178V0H.08Z" style="fill:#f3f3f3;fill-rule:nonzero" transform="matrix(269.64938 0 0 269.64938 3208.331 847.567)"/><path d="M.413.01a.347.347 0 0 1-.155-.033.311.311 0 0 1-.112-.087.375.375 0 0 1-.068-.122.44.44 0 0 1 0-.277.365.365 0 0 1 .068-.122.335.335 0 0 1 .267-.119.335.335 0 0 1 .267.119c.03.036.053.076.068.122a.43.43 0 0 1 0 .277.375.375 0 0 1-.068.122.311.311 0 0 1-.112.087.347.347 0 0 1-.155.033Zm0-.091a.245.245 0 0 0 .111-.024.245.245 0 0 0 .081-.065.295.295 0 0 0 .049-.093.359.359 0 0 0 0-.214.295.295 0 0 0-.049-.093.245.245 0 0 0-.081-.065.245.245 0 0 0-.111-.024.232.232 0 0 0-.191.089.278.278 0 0 0-.05.093.341.341 0 0 0 .05.307.232.232 0 0 0 .191.089Z" style="fill:#f3f3f3;fill-rule:nonzero" transform="matrix(269.64938 0 0 269.64938 3387.105 847.567)"/><path d="M.08 0v-.74h.098v.654h.381V0H.08Z" style="fill:#f3f3f3;fill-rule:nonzero" transform="matrix(269.64938 0 0 269.64938 3623.32 847.567)"/><path style="fill:#f3f3f3;fill-rule:nonzero" d="M.08-.74h.098V0H.08z" transform="matrix(269.64938 0 0 269.64938 3805.062 847.567)"/><path d="M.413.01a.347.347 0 0 1-.155-.033.311.311 0 0 1-.112-.087.375.375 0 0 1-.068-.122.44.44 0 0 1 0-.277.365.365 0 0 1 .068-.122.335.335 0 0 1 .267-.119.335.335 0 0 1 .267.119c.03.036.053.076.068.122a.43.43 0 0 1 0 .277.375.375 0 0 1-.068.122.311.311 0 0 1-.112.087.347.347 0 0 1-.155.033Zm0-.091a.245.245 0 0 0 .111-.024.245.245 0 0 0 .081-.065.295.295 0 0 0 .049-.093.359.359 0 0 0 0-.214.295.295 0 0 0-.049-.093.245.245 0 0 0-.081-.065.245.245 0 0 0-.111-.024.232.232 0 0 0-.191.089.278.278 0 0 0-.05.093.341.341 0 0 0 .05.307.232.232 0 0 0 .191.089Z" style="fill:#f3f3f3;fill-rule:nonzero" transform="matrix(269.64938 0 0 269.64938 3888.12 847.567)"/><path d="M.406.01a.352.352 0 0 1-.157-.033.358.358 0 0 1-.181-.209.434.434 0 0 1 0-.277.358.358 0 0 1 .181-.209.367.367 0 0 1 .157-.032c.05 0 .093.006.129.019a.296.296 0 0 1 .148.113.347.347 0 0 1 .05.132H.598L.595-.5C.592-.509.588-.521.581-.536a.167.167 0 0 0-.087-.077.242.242 0 0 0-.086-.014.217.217 0 0 0-.098.021.23.23 0 0 0-.111.142.334.334 0 0 0 0 .187.23.23 0 0 0 .111.142.205.205 0 0 0 .098.022.22.22 0 0 0 .086-.015.167.167 0 0 0 .101-.113l.003-.014h.135L.73-.236a.487.487 0 0 1-.015.049.294.294 0 0 1-.18.178.381.381 0 0 1-.129.019Z" style="fill:#f1f1f1;fill-rule:nonzero" transform="translate(939.086 547.228) scale(674.55955)"/><path d="M.142-.612a.078.078 0 0 1-.057-.023.076.076 0 0 1-.023-.055c0-.021.008-.04.023-.055a.078.078 0 0 1 .057-.023.08.08 0 0 1 .058.023.076.076 0 0 1 .023.055c0 .021-.008.04-.023.055a.08.08 0 0 1-.058.023ZM.076 0v-.53h.133V0H.076Z" style="fill:#f1f1f1;fill-rule:nonzero" transform="translate(1470.63 547.228) scale(674.55955)"/><path d="M.062 0v-.53h.133v.074H.2a.17.17 0 0 1 .075-.071.162.162 0 0 1 .07-.013c.039 0 .072.009.097.028a.172.172 0 0 1 .056.072H.5a.213.213 0 0 1 .06-.069.162.162 0 0 1 .105-.031.16.16 0 0 1 .093.025c.026.017.044.04.057.069a.24.24 0 0 1 .018.093V0H.7v-.325a.122.122 0 0 0-.022-.076.081.081 0 0 0-.067-.029.08.08 0 0 0-.056.019.092.092 0 0 0-.031.046.163.163 0 0 0-.01.057V0H.381v-.325a.122.122 0 0 0-.022-.076C.344-.42.322-.43.292-.43a.084.084 0 0 0-.057.019.107.107 0 0 0-.031.046.193.193 0 0 0-.009.057V0H.062Z" style="fill:#f1f1f1;fill-rule:nonzero" transform="translate(1669.625 547.228) scale(674.55955)"/><path d="M.289-.54c.034 0 .062.005.084.016a.224.224 0 0 1 .052.036.227.227 0 0 1 .026.032h.006V-.53H.59V0H.457v-.074H.451A.181.181 0 0 1 .289.01a.212.212 0 0 1-.176-.087.251.251 0 0 1-.044-.088.341.341 0 0 1 .044-.289.222.222 0 0 1 .073-.063.223.223 0 0 1 .103-.023Zm.035.109a.111.111 0 0 0-.075.025.143.143 0 0 0-.046.062.213.213 0 0 0 0 .158c.01.025.025.046.046.062.02.017.045.025.075.025s.055-.008.075-.025a.149.149 0 0 0 .045-.062.213.213 0 0 0 0-.158.149.149 0 0 0-.045-.062.111.111 0 0 0-.075-.025Z" style="fill:#f1f1f1;fill-rule:nonzero" transform="translate(2277.407 547.228) scale(674.55955)"/><path d="M.035 0 .29-.74h.177L.723 0H.581L.528-.156H.23L.177 0H.035Zm.234-.274h.22l-.11-.327-.11.327Z" style="fill:#f1f1f1;fill-rule:nonzero" transform="translate(2723.975 547.228) scale(674.55955)"/><path d="m.072 0 .001-.76h.132V0H.072Z" style="fill:#f1f1f1;fill-rule:nonzero" transform="translate(3242.028 547.228) scale(674.55955)"/><path d="M.124 0v-.423H.039V-.53h.085v-.049c0-.02.003-.041.008-.064A.183.183 0 0 1 .16-.705a.135.135 0 0 1 .055-.047.193.193 0 0 1 .089-.018.18.18 0 0 1 .05.005.359.359 0 0 0 .019.004v.097L.36-.667.332-.669c-.029 0-.048.008-.059.025a.116.116 0 0 0-.016.065v.049H.37v.107H.257V0H.124Z" style="fill:#f1f1f1;fill-rule:nonzero" transform="translate(3435.635 547.228) scale(674.55955)"/><path d="M.289-.54c.034 0 .062.005.084.016a.224.224 0 0 1 .052.036.227.227 0 0 1 .026.032h.006V-.53H.59V0H.457v-.074H.451A.181.181 0 0 1 .289.01a.212.212 0 0 1-.176-.087.251.251 0 0 1-.044-.088.341.341 0 0 1 .044-.289.222.222 0 0 1 .073-.063.223.223 0 0 1 .103-.023Zm.035.109a.111.111 0 0 0-.075.025.143.143 0 0 0-.046.062.213.213 0 0 0 0 .158c.01.025.025.046.046.062.02.017.045.025.075.025s.055-.008.075-.025a.149.149 0 0 0 .045-.062.213.213 0 0 0 0-.158.149.149 0 0 0-.045-.062.111.111 0 0 0-.075-.025Z" style="fill:#f1f1f1;fill-rule:nonzero" transform="translate(3698.034 547.228) scale(674.55955)"/></svg>